/* XPM */
static char *_c853570cafc492ed798465111396e06Ydd3FU7C0s6w7MIZ[] = {
/* columns rows colors chars-per-pixel */
"64 64 16 1 ",
"  c #767676",
". c gray48",
"X c gray49",
"o c #838383",
"O c gray53",
"+ c #8B8B8B",
"@ c gray55",
"# c gray57",
"$ c #979797",
"% c #9B9B9B",
"& c gray62",
"* c #A0A0A0",
"= c #A4A4A4",
"- c gray66",
"; c #AFAFAF",
": c gray69",
/* pixels */
"OOOooXXoXoXoXoXooXoooOOO@##$###+X  .@##@OOOoXXXoXXoXXXoXXoXoooOO",
"OOOOXooXoXoXoXoXXoXXoOOO@######@X ..+###OOoOXooXoXXooXXooXXoOOOO",
"OOOoXXXXXXXXXXXXXXXXoOOO@@####@+X  .+@#@OOOOXXoXXXXoXoXXXXXXoOoO",
"OOoOOO++++++++++++@@@#@#$%$$$$%$OXoO#%$$##@@@++OOOoOOO+++O+OooOo",
"OOO+$&&*=*****==*=*=====-==--===%%$&==--=====*=&%##%%&&&&&&$OoXX",
"oOO@&---;;:;;;;:;;:::::;::;;::;;=**-;;;;;;:::;:;*&%&==-==-=&OXXo",
"OOO@*=--;;;;;;;;;;;:;;;;;;;;;;;-=**=-;;;;;;;;;:-&&%&=------&OXXo",
"OOo+&===--;-;-;-;----;-;;--;;-;-====-;;-;-;-;;;-*&&&=----==&+oXX",
"OOO+$&&&========****============;;---===-------====--;;----&@OoO",
"OOo+$&%%***==**=%&&%**=*=*=*=*==-::;=**==----=---=--;;;;-==*@OOO",
"OOO+$%&%=*=*=*=*%%&&*===*=*=*===;:;;==*==--=---------::;---*+OOo",
"oOO+%&***=*=*=*=&&&&****=**=====--;-=*===-=--==--===-;;--==&@OOO",
"OOO+*;---==---=-====&%%&===--;-----=-====*=*=*=**=*=======*%+OOO",
"OOO@=::;---=-==--=-=&%&&=---;;:;-=------*=*=*=*==**==**=**=%@OOO",
"OOO@=:;;-----------=&%%&=-=-;::;-------==*=*=*=**==**==**=*&+oOo",
"O+O@*;;;----==-=-===&%&&=-=---;--=-====-===================%+ooo",
"OOO@=:;;;;--=**=*=*=****=*=======*=**===;-;-;-;-;;-;-;-;-;;*O ..",
"oOO#=:;;;;:;=*=*=*=**===*=*=**=**=*==*==-;;;;;;;;;;;;;::;;:*O . ",
"OOo@=:;;:;;;==*=*=*=*=*==**===*==*=**=*=;;;;;;;;::;;;;;;;;;*o   ",
"oOo@*-;--;;-===*=*=*=**==*===*=**=*=****-;;;-;;;;-;-;-;;---*O...",
"XoXO&===----=--=-=-=*==**=***==*==-=&%%&=-------=*======*&&$+ooo",
"oXXO%**=-==--=-----==*========*=---=&&&&==-----=*=*=*==*&%&$+oOo",
"XXXO%=*=------=-=--==***=*=**==*=--=&%&&=------==*=*=*=*&%%$+OOO",
"oOo+&====--=--------*=*=======*=-=-=&&&*==--=---========*&&%OooX",
"+++#=;--=----------=*=*=--;-;-;----======------=-;-;-;;---;&O...",
"##@%-;;;-----=---=--=*==;;::;;;;-=-=-----=-=----;;:;:;;::::*o   ",
"###%-;;;--=-------=-*=*=;:;;::;;------=----------:::;;:::;:*o   ",
"@@@$=;-;---=-==-=-===*==---;-;-;-==-====-==-===--;-;-;-;;-;*O...",
"++O@*----=-==*=**=*=*=*=*========*==*&&&=*=**=*=========---*+ooo",
"OOO@*--=---==**==*=*=*=**=*=*=*=*=**&%&%***==*==***==**=-=-*@OOo",
"OOO@*---=---==***=*=*=*==*=*=*=*=***%&%%*==**==**==**==*=--*@oOO",
"oOO+*------=***======*=**=*=*=*=*==*****================---*@OOO",
"OOO@=-;--;;-*&&*=;--=*=*===-==-=-==----;-;;-;-;-;-;--;-;-;;=$@#@",
"OOO#=;;;:;;;&%%*-::;==*=---=--------;;;;;;;;::;;;;::;;::;;;-$@##",
"OOO@=:;;;;:-*&&*;;:-===*=------=----;;;;:;;:;:;:;;:;;;;;;;;=%###",
"OO+@*;;;;---*%&*--;-=**==--==--=====-;-;-;;;;-;--;-;;;-;;;;=#@##",
"oOO+&=======*=**=====*=**=*==--=&&&&=-------===========-;::=#OOO",
"OOO+&******=*==***==*==*=**=-=-=&%&%=---=--==*=*=*=*=*==-;:=#OOO",
"OOO+%***===*=*=*=**==**=*==*---=&%&&=--=----=**=*=*=**==;;;=@OOO",
"OOO+&=======**==*==*=========-==&%%&=-=-=---==========*=--;=@oOO",
"OOO+&-=---;-=*=*====--;-;-;-===*&&%&*=*=;;;-;-;--;;----=---*@OOO",
"OOO@&==-;;;-====*=*=;;::;;;-=*=*%%%%*===-:::;;;;:;:--=-----*@+OO",
"oOo+*=--;;;;=*=**=*=-:;;:::-==**%&&%=**=;:;;:;;:;;;;-==--=-*+OOO",
"ooo+&----;;-==*=*===;-;;-;;;===*****====--;;-;;;;;;;---=---*+ooX",
".. O&-=------====*===------==--=----;-;---------=----;;;;-;*O ..",
"   o%=-----=----*=**=----=----=-;:;;;::--==---=-=---;:;;;;;*o . ",
".  o&-=--==--=-==**=--=---------;;;;;;;;------------;:::;;;*o   ",
".. O%=-=-=--=--=*==*==-=-==-===-;;;;:;;;-==-===-===---;-;-;&O...",
"ooX+%*=*=*=*=*=*=*=*=*=*=*=**=*=;;;::;:-=*=**=*==*=========&+ooo",
"OOO+&**=*=*=*=*=*=*=*=*=*=*==*==-;;;;::;==*==*=**=**=**==**%@OOO",
"OOO+&*=*=*=**==*=*=*=*=*=*=*====-:;;;;;-===**==*=*=**=***=*&+OoO",
"OOO+&===*=*=====*****=*=*=*=**==-;-;;-;-=**=**=**=*==*=====*@OOO",
"OOO@=;--=*==--;=*&%&====-====*=**=======*&%&*=*==--=-=--;-;=$#@#",
"OOO@=;;;==*=;;;;*%%&=-------*=*==**=*==*&%&%*==*=-=---=-;;;-$@##",
"oOo#=:;-==*=;;;-*&%&=-----===*=*=*=*=*=*%&%%=**=---------:;=%###",
"OOO@*;;-===*-;--&%&*=-=-=--=*==**=*=*=******=====--====-;-;*$@#@",
"OOO@*---=-=-====**=*===**=*=**=*=--=--=-=-;--;--=--=====*==*#OOO",
"OOO@*=---=-=***=****=**==*=**=*==-===-=-;;;;;;;;----****=**%+OOO",
"OOo@*-==-=-==*=*******=**=**==**--=-----;;::;:;;--===******%+oOO",
"Ooo+%*&&&&&&%%%%%$$%&&&&&&&&%&%&&***&***====*=*=*&&%&%%%&%&$+OOO",
"XXXoOOO+OOO+OOOOoXoO@$$$$#$#@@@@@+@+@@@@@@#@++++++OOOOOO++++OoOO",
"XooXoXXXXoXXXXX..  .+######@OoOOOOOoOOO+OoOoXXXXXXoXXoXXooOoOOOO",
"XoXXoXXooXXooXo.  ..+######@OOOoOOOOoOOOOOOooXXooXXooXXoOOOOOOOO",
"XXXoXXoXXoXoXoXX.. X+@@@####+OOOooooOOOOOoOOoXoXXoXXXoXXoooOooOO"
};
