/* XPM */
static char *dda824d1d8ce443083be7b7b594ac523znXXcWzwhub8R4DH[] = {
/* columns rows colors chars-per-pixel */
"64 64 238 2 ",
"   c None",
".  c #020403",
"X  c #010C04",
"o  c #080B0A",
"O  c #1A0C06",
"+  c #011205",
"@  c #05130C",
"#  c #09140C",
"$  c #031A0A",
"%  c #0C1C12",
"&  c #0E1412",
"*  c #141415",
"=  c #1A1A1A",
"-  c #161819",
";  c #0B0E10",
":  c #270803",
">  c #380200",
",  c #3E1E00",
"<  c #02220E",
"1  c #022705",
"2  c #043608",
"3  c #022C13",
"4  c #062512",
"5  c #18221A",
"6  c #013C13",
"7  c #033716",
"8  c #163D10",
"9  c #3C2505",
"0  c #293C16",
"q  c #171E22",
"w  c #1E2627",
"e  c #143629",
"r  c #232424",
"t  c #23292A",
"y  c #29372E",
"u  c #293636",
"i  c #343A3B",
"p  c #3B3D3D",
"a  c #333536",
"s  c #272D30",
"d  c #5C0200",
"f  c #4F1100",
"g  c #690B01",
"h  c #611302",
"j  c #4A2E02",
"k  c #4B3301",
"l  c #502E12",
"z  c #642200",
"x  c #6C340C",
"c  c #423C27",
"v  c #7F3830",
"b  c #025802",
"n  c #004B1C",
"m  c #024816",
"M  c #14471B",
"N  c #01551B",
"B  c #015C1C",
"V  c #005716",
"C  c #0D4701",
"Z  c #234F11",
"A  c #087600",
"S  c #02631D",
"D  c #046718",
"F  c #01731F",
"G  c #077C1A",
"H  c #136D0B",
"J  c #286A0D",
"K  c #025822",
"L  c #1A5B3A",
"P  c #0B4622",
"I  c #235D3B",
"U  c #304B37",
"Y  c #016423",
"T  c #016E24",
"R  c #017322",
"E  c #017C24",
"W  c #0A782B",
"Q  c #177A26",
"!  c #196933",
"~  c #0E7933",
"^  c #137133",
"/  c #2D753B",
"(  c #674A0D",
")  c #485328",
"_  c #3D3D41",
"`  c #413E40",
"'  c #3B4547",
"]  c #2C564C",
"[  c #2B6245",
"{  c #29724F",
"}  c #1E7543",
"|  c #444848",
" . c #4B5355",
".. c #555859",
"X. c #47504F",
"o. c #605E5E",
"O. c #5C6467",
"+. c #50706C",
"@. c #666869",
"#. c #656E73",
"$. c #667677",
"%. c #737A7C",
"&. c #777979",
"*. c #75716D",
"=. c #437758",
"-. c #971802",
";. c #851F0B",
":. c #B51800",
">. c #AE1803",
",. c #852005",
"<. c #8C3C01",
"1. c #932B03",
"2. c #B92701",
"3. c #AD2F01",
"4. c #C01E02",
"5. c #C62901",
"6. c #D43300",
"7. c #D93600",
"8. c #C73200",
"9. c #894601",
"0. c #944800",
"q. c #996400",
"w. c #AE7603",
"e. c #A65E00",
"r. c #DB5601",
"t. c #CD4701",
"y. c #E44D00",
"u. c #E95600",
"i. c #F45E00",
"p. c #C67501",
"a. c #FB6500",
"s. c #FB6900",
"d. c #F66600",
"f. c #F57B00",
"g. c #F67301",
"h. c #ED7B01",
"j. c #0A9D0E",
"k. c #058B1D",
"l. c #078819",
"z. c #0B9412",
"x. c #0B9B14",
"c. c #079518",
"v. c #10961C",
"b. c #0C890D",
"n. c #298F0B",
"m. c #0EA80C",
"M. c #0DA307",
"N. c #14AA08",
"B. c #14B605",
"V. c #15BB02",
"C. c #1BB807",
"Z. c #0DA310",
"A. c #1AA616",
"S. c #0FB601",
"D. c #27AC01",
"F. c #2BB60F",
"G. c #028223",
"H. c #048820",
"J. c #188E33",
"K. c #2A962E",
"L. c #33B22F",
"P. c #4CA31F",
"I. c #1CC401",
"U. c #23C404",
"Y. c #28C805",
"T. c #36C909",
"R. c #2ED400",
"E. c #2ED800",
"W. c #35DB00",
"Q. c #39D803",
"!. c #3BE000",
"~. c #3CC32D",
"^. c #44DC06",
"/. c #42E400",
"(. c #4CEB00",
"). c #4BE505",
"_. c #52ED02",
"`. c #54F201",
"'. c #5AF601",
"]. c #5DFA00",
"[. c #61FE00",
"{. c #4ACE34",
"}. c #74F038",
"|. c #2F8E4E",
" X c #36A545",
".X c #3E8163",
"XX c #478F59",
"oX c #51B54F",
"OX c #568C72",
"+X c #6AB872",
"@X c #5DB170",
"#X c #5AC551",
"$X c #67D25A",
"%X c #70C36C",
"&X c #D98B01",
"*X c #D99203",
"=X c #E49701",
"-X c #E69902",
";X c #EB9601",
":X c #FC9800",
">X c #F8A101",
",X c #EDBA00",
"<X c #EDB001",
"1X c #F7D100",
"2X c #FBF000",
"3X c #82CB7E",
"4X c #697B87",
"5X c #787F82",
"6X c #5D7B80",
"7X c #5D8282",
"8X c #5C9080",
"9X c #7B8584",
"0X c #728996",
"qX c #6A9288",
"wX c #71B28A",
"eX c #86898A",
"rX c #8A9395",
"tX c #819A84",
"yX c #ACA69A",
"uX c #889AA6",
"iX c #9098A0",
"pX c #99A9B0",
"aX c #A5A6AA",
"sX c #A6B9B9",
"dX c #B8BBBA",
"fX c #A7B0B3",
"gX c #8FD38B",
"hX c #B4D0BA",
"jX c #B9E5B7",
"kX c #C3D0BC",
"lX c #ADBCC1",
"zX c #BBC6C9",
"xX c #C4C7CA",
"cX c #D6D9D9",
"vX c #C3D2CF",
"bX c #D0EBCF",
"nX c #D9E3E2",
"mX c #ECF4ED",
/* pixels */
"                                                                                                                                ",
"                                                                                                                                ",
"                                                      X.s t | @.*. .u y | rX                                                    ",
"                                                    r Z n.A C = * 8 b n.J = 5X                                                  ",
"                                                  y 2 P.}.{.K.1 1 J {.}.P.C r                                                   ",
"                                                  4 b.%XkXkX+XD.M.oXhXbX3XF.2 #.                                                ",
"                                                ' e +XjX      gXgXjX    bX3XU e                                                 ",
"                                              u 1 K.hX  nXxXmX      xXcX  nXXXC %                                               ",
"                                              u b L.bXxX9Xa rX    fXa O.vX  $XA $                                               ",
"                                              a b {.bXaXu . &.    aX. q iXmX$Xb.%                                               ",
"                                              ' b ~.bXrX. . o.bXmXOX# . @.mX$XA 5                                               ",
"                                              ' 2  XbXeXX 3 Q ~.{.K.m . O.  @Xb 5                                               ",
"                                            rXe n J.wXXXH n.F.W.Q.T.n.A K.tX|.Y 3 $.                                            ",
"                                            X m F k.v.N.R._.[.[.[.[.].W.F.v.H.E N + '                                           ",
"                                          t $ S c.C.^.(.`.[.[.[.[.[.[.'.`.).Y.Z.R 1 * %.                                        ",
"                                         .# 6 l.U./.'.).T.Q.(.[.[.'.Q.T.^.].).Y.j.V % w                                         ",
"                                        w < D C./.[.].T.v.C.W.].[./.I.v.F.'.[.(.U.G 7 @                                         ",
"                                      O.. 6 v.^.].[.[.`.^.U.W.].[.!.I.Q._.[.[.]._.A.N o i                                       ",
"                                      r ..Q C._.[.[.[.[.]././.[.[.`.Q.'.[.[.[.[.[.F.Q ] s                                       ",
"                                    eXs   @XU.'.[.[.[.[.].[.[.[.[.[.[.[.[.[.[.[.].W.L.vX..'                                     ",
"                                    9Xp   %XY.'.[.[.[.[.[.[.[.[.[.[.[.[.[.[.[.[.].W.L.mX@.'                                     ",
"                                    9X|   %XC.`.[.[.[.[.[.[.[.[.[.[.[.[.[.[.[.[.[.U. XmX#.'                                     ",
"                                    eXi   wXc.).].[.[.[.[.[.[.[.[.[.[.[.[.[.].].'.N.|.mXO.X.                                    ",
"                                      t   wXl.Y.(.[.[.[.[.[.[.[.[.[.[.[.[.[.[.`.R.c.|.mX|  .                                    ",
"                                      w #.qX|.A.Y.(.].[.[.[.[.[.[.[.[.[.[.[._.W.N.J.OX#.w 9X                                    ",
"                                      ... 5X  ~ Z.U.(.].'.'.].'.].].'.'.].`.R.m.H.qXiX; a                                       ",
"                                        = ` OXW H.c.A.F.R.R.R.R.R.R.R.R.Y.A.v.k.G {  .o pX                                      ",
"                                        ..= a ! W E E c.m.m.m.m.Z.m.m.m.c.E E W ! U r t                                         ",
"                                          r - p ! R E E G.G.G.G.G.G.k.G.E E E ! ' 5 * &.                                        ",
"                                            r = 4 3 N T G.G.G.G.G.E E G.R B 6 1 = = %.                                          ",
"                                              w . . < m N N V V N V V V n 3 . . * 5X                                            ",
"                                              5X= . . X X + + # @ # # @ + . . * ..                                              ",
"                                              rX= . < 3 3 m L #.#.O.O. .u 3 o ; @.                                              ",
"                                              ..- < n K K } OXpXlXlXsXpX7XL 7 q p                                               ",
"                                            ..* 3 n R E ~ +.0XlX          6X} K & _ dX                                          ",
"                                          O.% 4 m R c.c.J.+.uXvX            8X[ 3 % i lX                                        ",
"                                        %.# 4 n R c.B.A.|.6XpX                +.K 3 & i                                         ",
"                                        u 1 n R x.B.C.K.8X0XzX                  ~ K 7 ; i                                       ",
"                                        ; 3 R x.S.B.Z.|.0XlX                    =.^ N 3 @ %.                                    ",
"                                      t 4 V x.I.I.m.H.{ $.zX                      |.k.N $ '                                     ",
"                                      $ S z.U.(.Y.H.E Y [ sX                       Xm.G 2 ; 9X                                  ",
"                                      1 z.Y./.'.T.x.G.Y I sX                      #XV.Z.V % r                                   ",
"                                      1 N./.[.]./.C.k.Y I sX                      #XS.V.l.6 @                                   ",
"                                      1 N./.].[.].^.v.K I hX                      @Xc.B.x.V @ zX                                ",
"                                      1 z.^.[.[._.T.G ! +.zX                      OXD x.c.S %                                   ",
"                                      % D F._._.W.j.V ] 0XzX                      OXN R E N %                                   ",
"                                      X.$ D A.U.m.k.n ] 0XzX                      .XF N K 7 4                                   ",
"                                        ..< m b D K Y { 0XsXvX                    L.c.S 7 $ p                                   ",
"                                           .. + 2 B G { 4XuXlX                  C.I.C.k.2 =                                     ",
"                                            + N l.j.H.I ..4XuXsXxX            v.C.^./.C.2                                       ",
"                                            $ F m.V.Z.J.I ..4X            ] ^ c.I.E./.I.C  .                                    ",
"                                            $ S x.B.B.j.Q | O.            K Y v.D.D.D.D.C ; &.                                  ",
"                                            X n F k.k.F M x v             m T J 9.<.<.<.1.g O #.                                ",
"                                            o 9 Z Y Y K M -.;.r q = = i U ( ) ( >.5.6.6.7.2.h : aX                              ",
"                                            : -.l M 8 M 0 1.g o a  .| ; j u.5.:.2.y.a.a.s.u.2.f 9X                              ",
"                                          O.O -.>.x ;.;.-.>.g a       @.> 5.:.5.y.i.a.a.a.i.y.h &.                              ",
"                                        &.: h 2.6.6.6.6.6.:.d |       %.: >.5.t.f.:X:X:X>X:Xs.z %.                              ",
"                                        | d 5.u.d.d.d.d.u.5.d p       #.> 2.y.g.=X1X2X2X2X1X;Xz eX                              ",
"                                        X.g 5.d.s.s.d.y.8.t.h p       #.> y.f.;X-X<X,X,X,X<X;Xx                                 ",
"                                        &.> -.r.g.f.f.r.3.<.j @.      #.j h.;X=X-X-X=X;X=Xp.w.j                                 ",
"                                          ` : 0.p.&X&Xp.0.: |         5X9 &X=X=X-X-X=X*Xp.( : |                                 ",
"                                            @.l j k k j l *.          xXc j w.>X;X&Xe.k j l *.                                  ",
"                                              cXxXxXzXxXnX              cXo.( q.q.9.x ..aX                                      ",
"                                                                            kXyXyXdXcX                                          "
};
