/* XPM */
static char *d770dc245e1c4372b6b5ff8b2b17fc3e6QfXcQvxJstGETuP[] = {
/* columns rows colors chars-per-pixel */
"64 64 236 2 ",
"   c None",
".  c #0A0C0B",
"X  c #040402",
"o  c #1C0807",
"O  c #001B04",
"+  c #011509",
"@  c #001B0A",
"#  c #071406",
"$  c #0E1411",
"%  c #0D1A14",
"&  c #121414",
"*  c #1A1C1B",
"=  c #171A18",
"-  c #290903",
";  c #340800",
":  c #002B01",
">  c #00230E",
",  c #012D0B",
"<  c #002300",
"1  c #02340C",
"2  c #042913",
"3  c #072514",
"4  c #152518",
"5  c #013815",
"6  c #113700",
"7  c #382702",
"8  c #292C13",
"9  c #1B1E20",
"0  c #1C2328",
"q  c #2C2B2B",
"w  c #242729",
"e  c #2D3537",
"r  c #323332",
"t  c #373B3B",
"y  c #33302D",
"u  c #4E0C05",
"i  c #740B00",
"p  c #600500",
"a  c #4F3505",
"s  c #77390C",
"d  c #69310C",
"f  c #4A3D3E",
"g  c #084A01",
"h  c #004E1C",
"j  c #05461C",
"k  c #02521D",
"l  c #05581B",
"z  c #275C06",
"x  c #0A7A06",
"c  c #046215",
"v  c #02651C",
"b  c #026B1D",
"n  c #066A14",
"m  c #057819",
"M  c #156B12",
"N  c #32710E",
"B  c #025421",
"V  c #0C522A",
"C  c #175639",
"Z  c #184F33",
"A  c #314E3B",
"S  c #056A25",
"D  c #017322",
"F  c #017D23",
"G  c #0F752D",
"H  c #137A35",
"J  c #146F2F",
"K  c #2D6E34",
"L  c #59430E",
"P  c #684702",
"I  c #566E03",
"U  c #537200",
"Y  c #5E7B00",
"T  c #406111",
"R  c #637C00",
"E  c #606B09",
"W  c #505429",
"Q  c #684738",
"!  c #7F4B21",
"~  c #373F43",
"^  c #3D4547",
"/  c #3A5947",
"(  c #187941",
")  c #267C4E",
"_  c #1E5142",
"`  c #434A4A",
"'  c #4C5558",
"]  c #535B5D",
"[  c #575B55",
"{  c #51514A",
"}  c #6D5656",
"|  c #575F61",
" . c #6F5C64",
".. c #5A6368",
"X. c #5A6B71",
"o. c #58767A",
"O. c #4A7269",
"+. c #687479",
"@. c #737979",
"#. c #656C71",
"$. c #57635C",
"%. c #950E00",
"&. c #891202",
"*. c #991502",
"=. c #A31301",
"-. c #AA1700",
";. c #B41500",
":. c #BB1B01",
">. c #B91600",
",. c #AA0E00",
"<. c #8F2C0D",
"1. c #B82500",
"2. c #A83B02",
"3. c #AC2E10",
"4. c #923831",
"5. c #AB382D",
"6. c #C51B02",
"7. c #D71B01",
"8. c #C42B00",
"9. c #C62800",
"0. c #CA3800",
"q. c #D63700",
"w. c #D8280E",
"e. c #EC2406",
"r. c #F92606",
"t. c #854B00",
"y. c #B06902",
"u. c #814D22",
"i. c #855026",
"p. c #A14237",
"a. c #D74901",
"s. c #E54C00",
"d. c #E94C00",
"f. c #E14300",
"g. c #E95700",
"h. c #C97901",
"j. c #CF7400",
"k. c #F56300",
"l. c #FC6700",
"z. c #F87D01",
"x. c #E96E00",
"c. c #C84336",
"v. c #864241",
"b. c #AD4E44",
"n. c #CC5847",
"m. c #088308",
"M. c #0C950B",
"N. c #189605",
"B. c #06871A",
"V. c #118B18",
"C. c #089616",
"Z. c #168E10",
"A. c #0EA70D",
"S. c #16A906",
"D. c #15BC01",
"F. c #17B605",
"G. c #0DA110",
"H. c #17B40B",
"J. c #2CA900",
"K. c #29BB07",
"L. c #3CB603",
"P. c #31AD0D",
"I. c #008125",
"U. c #118C30",
"Y. c #288318",
"T. c #6C8600",
"R. c #728900",
"E. c #728700",
"W. c #13C300",
"Q. c #1BC800",
"!. c #27C702",
"~. c #36C90A",
"^. c #25D200",
"/. c #2BD400",
"(. c #39DA01",
"). c #35CC15",
"_. c #3EE100",
"`. c #45D906",
"'. c #44D30D",
"]. c #43E301",
"[. c #4DED00",
"{. c #46E902",
"}. c #52F300",
"|. c #5AF600",
" X c #5EFC00",
".X c #5BF00B",
"XX c #4FF100",
"oX c #62FE00",
"OX c #65F90D",
"+X c #6AF914",
"@X c #51C63D",
"#X c #348C59",
"$X c #3F9265",
"%X c #53B351",
"&X c #459867",
"*X c #5A8F76",
"=X c #628D6F",
"-X c #568D5E",
";X c #7FEA4C",
":X c #C58100",
">X c #D38901",
",X c #FC9C00",
"<X c #F78500",
"1X c #E8B302",
"2X c #87FD31",
"3X c #F6E601",
"4X c #F4DE01",
"5X c #A8F776",
"6X c #84DD64",
"7X c #6C7681",
"8X c #727B84",
"9X c #5D7C88",
"0X c #7C8588",
"qX c #7B8F9D",
"wX c #879497",
"eX c #9A9598",
"rX c #8B898D",
"tX c #8F9CA6",
"yX c #95A7AB",
"uX c #9FBEBB",
"iX c #ABB3B5",
"pX c #A7B6B9",
"aX c #B2BBBB",
"sX c #A2ACAE",
"dX c #84AE94",
"fX c #C59E9D",
"gX c #AAE68C",
"hX c #B9E6A5",
"jX c #91C592",
"kX c #C8FF9D",
"lX c #B1BBC3",
"zX c #BBC4C9",
"xX c #CDD6D3",
"cX c #E4E9E9",
"vX c #EEEFF3",
"bX c #D5E3D5",
/* pixels */
"                                                                                                                                ",
"                                                                                                                                ",
"                                                                                                                                ",
"                                                          8X        8X                                                          ",
"                                                    @.w 6 : 6 r y 4 : 6 8                                                       ",
"                                                  @.4 z `.!.M # # M K.`.z *                                                     ",
"                                                  e g J.oX}.J.x x K.}.|.J.g t                                                   ",
"                                                wX2 N.{.|.oX{.Q.Q.{.oX XXXN.2                                                   ",
"                                                @ k L.oXoXoX].W.D.].oX XoXL.l +                                                 ",
"                                                O N.].oX XoX].D.D.].oXoXoX{.N.<                                                 ",
"                                                : F.{.oX X{.(.W.W./.{. XoX{.F.:                                                 ",
"                                                < S.].oX[.!.S.J.J.S.!.[.oX{.S.:                                                 ",
"                                              wXO B.`.XX!.C.N <.<.T C.!.{.`.V.O                                                 ",
"                                              ` # D K.(.(.H.I 9.0.E S.(.(.!.D @ `                                               ",
"                                            @.$ 2 B.H._.|.^.R.d.d.E.^.|._.H.I.1 & +.                                            ",
"                                            t > c F.]. X X^.T.s.s.E.^.|. X].F.n > e                                             ",
"                                            $ 1 V.`.|.oX|.^.Y 1.1.Y ^.|.oX X`.V.5 .                                             ",
"                                          q t J H.|.oXoX|.^.U *.=.I ^.|.oXoX XH.  t r                                           ",
"                                          9 0X%X/.|.oXoX|.^.U -.-.U ^.|.oXoX|.^.    *                                           ",
"                                        e * iX6X}. XoXoX|.^.T.q.q.T.^.|.oXoXoX}.    0 e                                         ",
"                                        w ..xX5XoXoXoXoX X^.T.s.d.E.^.|.oX XoX X    #.w                                         ",
"                                      ' ^   cX5XOXoX XoX|.^.T.s.d.E.^.|.oXoXoXoX      ^ '                                       ",
"                                      ] ^     kX2XoX XoX|.^.T.s.s.E.^.|.oXoXoX2X      ^ ]                                       ",
"                                      ] e   bXbX5X+X X X X^.T.8.8.R ^.|.oXoX+X        e '                                       ",
"                                        0 +.lXxXhX+X.XoX|.^.U *.=.I ^.|.oX X+X        0 #.                                      ",
"                                        w w wXzXhX+X XoX|.^.U -.=.I ^.|.oXoX+X      w q                                         ",
"                                          . ] tXjX'.XXoX|.^.T.0.0.T.^.|.oX}.).      .                                           ",
"                                          * q ..*XV.~.`.].^.R.d.d.R.Q.].`.~.Z.=X..q *                                           ",
"                                            & q ^ h S C.F.W.T.a.f.T.D.F.C.D j A q &                                             ",
"                                              * & + 5 b C.F.Y -.1.Y F.C.D 5 # & * ]                                             ",
"                                              | & X + 5 v C.N L L N C.v 5 + X & ..                                              ",
"                                                r . X > h S U.H H U.J V 3 X . r                                                 ",
"                                              aXe . @ h G C O.o.o.O.o.X.Z > . e                                                 ",
"                                              ] * 3 h J K ' } v.4.} v.v.' _ 3 = ]                                               ",
"                                            ] & > h S H '  .4.*.=.=.=.*.} ' Z 3 = '                                             ",
"                                          ] & , B D F ( X.4.=.=.=.=.=.=.=.4.X.Z > $ '                                           ",
"                                        | & 2 h m G.B.#XrX4.-.=.=.=.%.,.7.5.+.( h 2 & '                                         ",
"                                        % > l B.G.F.C.#XsX5.;.>.,.,.,.6.e.c.+.( D B > $ @.                                      ",
"                                      ^ O c S.W.D.D.C.&XaXb.9.e.>.,.6.e.r.c.9XH B.D B + ]                                       ",
"                                      = g S.]./.H.C.B.#XpXeXn.r.e.e.e.r.7.4.9XC m A.m : '                                       ",
"                                    r 1 Z.`.|.[.K.b D U.*XzXfXc.w.7.7.6.5.} 7X_ m D.B.1 '                                       ",
"                                    % c K.oXoXoX`.l S F H dXaXeXp.3.3.4. .9XO.C n A.m , ..                                      ",
"                                    4 m.(. X XoX'.l S m B C *XyXeXeXrX .7XO.H B S m , 4                                         ",
"                                    3 n ~.oXoXXXK.k h b m.m.H O.&X&X&X) ) ( F k 5 5 * wX                                        ",
"                                    % h G.[..X!.M.k k m.^./.S.n B S b F B.B.F B > & eX                                          ",
"                                    % 5 S V.H.G.m l V.~..XOX(.F.v B v I.A.A.F B O `                                             ",
"                                    ` # 5 B n b V A %XqXgXgX;X_.S.V.M.A.G.B.B 2 $ @.                                            ",
"                                    lXw @ h B l V ` 8XlXcXcXhX6X@XK.W.A.C.B.n , $ @.                                            ",
"                                      ] # k D I.J / ..tXcXvXcXzXsX%XA.C.A.D.H.M O `                                             ",
"                                    iXw , D F I.F J / +.tXlXzXyXqX$.K S.F.W.F.I.1 `                                             ",
"                                  lXw u 8 B.I.F I.G W Q ..8X8X8XX.' / K.W.W.F.C.1 `                                             ",
"                                xXr - &.P K F F F S d <.f t f ~ ~ W W J.L.L.L.Y.1                                               ",
"                                wX; *.;.-.<.J I.D B s &.. & & . . p 3.j.j.j.j.2.u                                               ",
"                                +.- ;.;.;.;.s L d d *.i & lX0XX u %.6.q.q.q.q.9.p 0                                             ",
"                                #.; 1.1.-.1.9.9.1.>.>.i y   lX- %.9.9.9.9.9.9.1.i - t                                           ",
"                                +.7 >X1.;.9.g.k.s.1.:.i y   aXo %.f.k.k.k.l.g.8.;.&.-                                           ",
"                                aX8 d j.g.s.l.l.g.;.a.t.r   iXo %.f.l.l.l.l.l.g.q.*.-                                           ",
"                                    4 P h.z.z.<Xx.a.y.P [   iX- 2.x.,X,X,X,X,X<Xk.2.o                                           ",
"                                      4 L >X>X>X>Xh.a w       8 y.1X3X3X3X3X3X1X>Xy.8                                           ",
"                                        y 7 7 7 7 7 }         { 8 P >X:X:X:Xy.j.P 7 }                                           ",
"                                                                0XQ i.u.u.u.u.u.Q 0X                                            ",
"                                                                                                                                ",
"                                                                                                                                ",
"                                                                                                                                "
};
