/* XPM */
static char *_8ee6425d23e4826ac06d712eb810a28NzTwgcP4BxvuLCAp[] = {
/* columns rows colors chars-per-pixel */
"64 64 240 2 ",
"   c None",
".  c #0A0B0C",
"X  c #070606",
"o  c #1B0301",
"O  c #160908",
"+  c #02140A",
"@  c #021808",
"#  c #1D160A",
"$  c #0D1313",
"%  c #141413",
"&  c #1A1B1C",
"*  c #171A17",
"=  c #0C0F10",
"-  c #260A03",
";  c #380A05",
":  c #291505",
">  c #251714",
",  c #381604",
"<  c #012303",
"1  c #01240C",
"2  c #092A08",
"3  c #043607",
"4  c #032511",
"5  c #043715",
"6  c #1A301D",
"7  c #29261C",
"8  c #2B3510",
"9  c #191D20",
"0  c #1D2626",
"q  c #1C3429",
"w  c #232A2D",
"e  c #272726",
"r  c #352D2D",
"t  c #2C363A",
"y  c #2D3436",
"u  c #37393A",
"i  c #2D312F",
"p  c #480902",
"a  c #560C02",
"s  c #591205",
"d  c #421009",
"f  c #6B0A01",
"g  c #720C01",
"h  c #791001",
"j  c #661602",
"k  c #4A2604",
"l  c #5B2A04",
"z  c #55380F",
"x  c #713303",
"c  c #6A2F0B",
"v  c #542E2B",
"b  c #01441C",
"n  c #014D1C",
"m  c #004213",
"M  c #03581B",
"N  c #0C4C08",
"B  c #016B1D",
"V  c #056617",
"C  c #03791D",
"Z  c #16750E",
"A  c #336B12",
"S  c #044A21",
"D  c #074723",
"F  c #035A22",
"G  c #165034",
"H  c #334A3F",
"J  c #284F37",
"K  c #006A22",
"L  c #036624",
"P  c #017423",
"I  c #017C23",
"U  c #147130",
"Y  c #524E12",
"T  c #4C7313",
"R  c #5C651F",
"E  c #363E42",
"W  c #3B4449",
"Q  c #2D564C",
"!  c #316C55",
"~  c #3E6462",
"^  c #444748",
"/  c #4A5355",
"(  c #475659",
")  c #57595A",
"_  c #454C51",
"`  c #495A63",
"'  c #496769",
"]  c #5B6B78",
"[  c #5C686E",
"{  c #666869",
"}  c #656D75",
"|  c #677275",
" . c #747979",
".. c #7A6F72",
"X. c #5C5959",
"o. c #891401",
"O. c #961501",
"+. c #8A0F01",
"@. c #A51702",
"#. c #B41500",
"$. c #B91801",
"%. c #A30D00",
"&. c #942B05",
"*. c #A82503",
"=. c #BA2602",
"-. c #B83501",
";. c #A8340E",
":. c #932D23",
">. c #A43C2E",
",. c #C62700",
"<. c #D63900",
"1. c #CC3901",
"2. c #E92406",
"3. c #D11E01",
"4. c #964A00",
"5. c #895605",
"6. c #824201",
"7. c #A75402",
"8. c #B45900",
"9. c #B45601",
"0. c #AF4902",
"q. c #BD6800",
"w. c #B17800",
"e. c #A46500",
"r. c #976100",
"t. c #D84400",
"y. c #CC5501",
"u. c #D75702",
"i. c #C64800",
"p. c #E54700",
"a. c #ED5B00",
"s. c #F25E00",
"d. c #CA6B00",
"f. c #CF6F00",
"g. c #F56300",
"h. c #FB6A00",
"j. c #EB7401",
"k. c #D35828",
"l. c #E16529",
"z. c #844E4E",
"x. c #967676",
"c. c #A65C58",
"v. c #048B1D",
"b. c #06841B",
"n. c #099715",
"m. c #148D0D",
"M. c #368F04",
"N. c #0EA60D",
"B. c #15A908",
"V. c #16BB02",
"C. c #18B606",
"Z. c #17A119",
"A. c #29B80A",
"S. c #27B915",
"D. c #028224",
"F. c #0A8923",
"G. c #0F8C2A",
"H. c #2BB02A",
"J. c #559820",
"K. c #19C300",
"L. c #28C805",
"P. c #36C90B",
"I. c #2BD400",
"U. c #37D802",
"Y. c #3DD314",
"T. c #3DE000",
"R. c #46DB0A",
"E. c #4BD30E",
"W. c #44E501",
"Q. c #4AEB00",
"!. c #48EA01",
"~. c #53EB02",
"^. c #54F300",
"/. c #5EFB00",
"(. c #5AF602",
"). c #61FE00",
"_. c #65F90C",
"`. c #71FA18",
"'. c #4AD027",
"]. c #74F32C",
"[. c #2E8F4D",
"{. c #56A84C",
"}. c #58867A",
"|. c #4D8D65",
" X c #6AB775",
".X c #4A895D",
"XX c #75D06B",
"oX c #5EC853",
"OX c #DA8800",
"+X c #DA9200",
"@X c #F68A01",
"#X c #FCB500",
"$X c #ECD900",
"%X c #EFCD00",
"&X c #97F951",
"*X c #99EB70",
"=X c #5D7885",
"-X c #667A88",
";X c #757F83",
":X c #817B83",
">X c #7A858B",
",X c #698392",
"<X c #7D8E97",
"1X c #788F97",
"2X c #70A58C",
"3X c #878A8B",
"4X c #8A9497",
"5X c #8D9297",
"6X c #8AB597",
"7X c #909BA3",
"8X c #99A6AA",
"9X c #95AFAA",
"0X c #A8B5B9",
"qX c #ABAEAF",
"wX c #A59B97",
"eX c #C8BAB4",
"rX c #96D292",
"tX c #ABE88F",
"yX c #AED3B0",
"uX c #B7EBA1",
"iX c #9BC0B4",
"pX c #C9FCA6",
"aX c #D5FCB5",
"sX c #D6C5BC",
"dX c #AEBCC4",
"fX c #BAC5C9",
"gX c #C6CED1",
"hX c #CDD1D4",
"jX c #C9D4D7",
"kX c #D3D5D7",
"lX c #C4D6CA",
"zX c #CBE2CC",
"xX c #DDDFE6",
"cX c #DBE3E3",
"vX c #E5E9E9",
"bX c #ECECF3",
"nX c #ECF1F1",
"mX c #FDFDFD",
"MX c #F5F7F7",
"NX c #EBF3E9",
/* pixels */
"                                                                                                                                ",
"                                                                                                                                ",
"                                                                                                                                ",
"                                                                                                                                ",
"                                                                { } } 3X  >X|                                                   ",
"                                                              J < 3 2 2 i 2 2 5                                                 ",
"                                                            q Z P.~.A.Z 2 Z A.Z.D                                               ",
"                                                          J F A.].tXtX{.m.{.rXrX7 t                                             ",
"                                                        t < Z.'.*XcXbXyXoX6XxXvX) 9 }                                           ",
"                                                  e % % X 3 S.rXvXMXnXlX8XgXcXkX<XE E                                           ",
"                                                & d g g 8 m.R.uXmXnX8X....hXqX) <X_ t                                           ",
"                                              e s &.$.%.T C._.pXmXNX{ e ) hX3XO >X/ t                                           ",
"                                              - 1.p.t.*.T I.).pXmXvX/ % ) hXwX# >X( w                                           ",
"                                            y - O.<.p.t.J.I._.pXmXvX^ . ) eX}.$ ] W X y {                                       ",
"                                          t = X p *.-.5.M.L.U.yXmXnX5X{  . X{.A {.J.Z N 2 u                                     ",
"                                        y : o - o s x F.C.L.L.*XkXNXzXyX6XY.R.)./.).~.I.Z 2 < 7  .                              ",
"                                        # g *.-.o.Y Z N.U.(.^.Y.XXzXXX'.].(.(.).).)./.(.E.E.B.N 0 |                             ",
"                                        o *.p.<.$.T C.U.^./.).^.'.oXR.!.(.).).).).R.A.U.~.).R.m.5 e                             ",
"                                        O -.p.t.&.T '.].].].`._.Q.I.^.)././.).).).Y.Z.V.T.)./.S.V + 4X                          ",
"                                        o o.3.9.A |.0XyXzXuX&X`./././.).).).).).).(.Q.L.U.)./.U.m.@ y 0X                        ",
"                                        r d a z |.0XxXbXnXNXaX&X`.).).).).).).).).)./.!.^././.^.A.N $ }                         ",
"                                        W . X v 8XcXmXmXmXmXmXpX&X).).).).).).).).).).).).).).).R.v.< (                         ",
"                                        u . p >.eXnXmXmXmXmXMXvXtX_./.).).).).).).).).).).).).).R.F.< /                         ",
"                                      0X> a @.k.sXnXmXmXmXmXmXmXuXR.^.).).).).).).).).).).).).).R.F.2 _                         ",
"                                      8Xo +.<.l.eXcXmXmXmXmXmXmXyXC.W.).).).).).).).).).).).).^.P.C < (                         ",
"                                      0XO h ,.k.wXjXmXmXmXmXMXcX6XG.Y./.).).).).).).).).)./.(.U.N.n + (                         ",
"                                        r - h >.;XfXnXMXMXMXxXjX2XG.C.W.).).).).).).)./.).^.I.B.V 2 * >X                        ",
"                                        8Xw ; s ^ ,XfXkXxXjXdX8X,XI n.C.P.W.W.W.W.W.W.W.R.P.N.b.n X [                           ",
"                                          8X^ & = E -X7X8X7X-X-X~ G K I v.B.V.C.V.V.V.V.n.D.I M 4 $                             ",
"                                              fX/ 0 w ) -X-X-X=X,X' G F I v.v.v.v.F.F.v.F.I F 4 $ H                             ",
"                                                hX/ * e E W ~ ' ] ,X~ Q [.U D.D.I I I K M 5 1 + ^                               ",
"                                                  hX/ * X + 5 J ~ ] =X=X~ U B K B B B b 1 = t  .                                ",
"                                                    vX) = + 5 S G _ ( u * + @ + + @ @ + e >X                                    ",
"                                              dX4X1X;Xy e q S b b J ( ( E . . E 7X                                              ",
"                                            qXr O o o - r H D n n D ~ -X-Xt 9 )                                                 ",
"                                            w - h O.O.O.v H S B B S W | 7X-XE % )                                               ",
"                                          / ; g %.@.*.X.X.H V n.n.L D Q ~ =X` e &                                               ",
"                                          t a $.%.%.:...( G n.A.L.Z.Z Z B ! ' _ + }                                             ",
"                                          t +.2.#.%.:.} Q V C.W.(.~.~.R.B.Z Q [ 9 e 8X                                          ",
"                                        5X= g 2.2.>.{ -XQ V C.Q.).).)._.W.B.V w r & /                                           ",
"                                        u w c 2.3.c.,X' G B C.Q.).).~.W.W.U.Z X W w w                                           ",
"                                        & ` z.@.;.c.1XG 5 V V.W.).(.U.K.L.W.M.. ' W $ ^                                         ",
"                                      dX$ ^ ..:Xx.x.( D 4 N C.K.W./.^.P.n.Z.N $ -X.Xn * ^                                       ",
"                                        e e / ;X}.! J F 1 < n.V.L.P.W.L.n.I 5 % 4X Xb.3 $ |                                     ",
"                                         .= 4 D b S F P 5 < B N.N.D.N.C.B.M 4 w qXXXN.V @ t                                     ",
"                                        bXy @ b n F P I M 4 1 V v.I B V M < w ] dXXXC.b.5 X t W / 5X                            ",
"                                      gX4X0 @ S F b.N.n.C n 1 5 m m 1 @ 1 q } dXfX Xn.Y z x x s ; e 4X                          ",
"                                    3X7 O o 2 M b.N.V.V.n.C M 4 + + 6 e y | fXvX0X.XA *.p.h.h.<.O.- 7 >X                        ",
"                                  5X& p O.O.z D.B.V.V.K.V.N.C K B U 6XkXhXxXvXgX|.Y ;.u.g.h.h.g.t.O.d 0 }.                      ",
"                                  r p &.<.,.Y v.C.K.K.V.K.N.B P v.Z.yXnXNXnXhX7XU z ,.s.h.h.#X%X#X+X5.k i                       ",
"                                  # o.t.a.,.z v.N.V.V.K.V.m.M K n.H.iXhXgXfX8X{ H x ,.p.h.@X%X$X$X$XOXx *                       ",
"                                  # &.f.a.,.Y I v.N.V.V.n.P S L [.6X9XdX8X<Xz.*.u.i.$.=.u.OXw.q.q.w.OXe.*                       ",
"                                  # e.j.s.,.0.R I v.v.n.I F J ! ,X1X;X[ W E v $.<.,.$.y.f.d.8.8.9.9.d.5.%                       ",
"                                  # w.@Xg.<.<.d.T T T A D 6 i W ~ W t & . + p +.@.=.y.f.d.8.8.8.8.8.4.l e                       ",
"                                  # w.@Xh.g.<.,.a.j.y.&.d X 0 y u ^ E X.x. .r - O.y.OXd.8.8.8.8.8.7.k #  .                      ",
"                                  # w.j.<.g.<.$.1.<.#.s > 3X                  X O.u.+X8.9.8.8.8.4.k > |                         ",
"                                  # e.d.=.t.1.#.#.#.+.X [                     > j 0.OXq.9.9.8.4.c # ..                          ",
"                                  > 6.8.9.=.$.$.#.#.+.>                       { % l 7.7.7.7.7.k *  .                            ",
"                                  H : x 8.0.-.$.$.g - )                         { > : - - : - 7 ;X                              ",
"                                    t , c c j f f ; E                                                                           ",
"                                      ..^ u u u u |                                                                             ",
"                                                                                                                                ",
"                                                                                                                                ",
"                                                                                                                                "
};
